# xmcd
#
# Track frame offsets:
#	150
#	20706
#	39252
#	59467
#	80950
#	95003
#	110003
#	126972
#	143212
#	162361
#	179257
#	197483
#	212681
#	229842
#	244775
#	263141
#	281411
#	301077
#	320683
#
# Disc length: 4467 seconds
#
# Revision: 0
# Processed by: cddbd v1.5.2PL0 Copyright (c) Steve Scherf et al.
# Submitted via: EasyCDDAExtractor 16.0.6.1
#
DISCID=16117113
DTITLE=Βιτάλη Ελένη - Προσκήνιο-Ελ. Βιτάλη
DYEAR=2000
DGENRE=Ποικίλη
TTITLE0=Βιτάλη Ελένη - Είναι αβάσταχτο να φεύγεις
TTITLE1=Βιτάλη Ελένη - Οι μοναχικές γιαγιάδες
TTITLE2=Βιτάλη Ελένη - Κιβωτός
TTITLE3=Βιτάλη Ελένη - Αυτό το κάτι
TTITLE4=Βιτάλη Ελένη - Ξαφνικός έρωτας
TTITLE5=Βιτάλη Ελένη - Άϊντε να φύγουμε
TTITLE6=Βιτάλη Ελένη-χορωδία - Εσύ που ξέρεις τα πολλά
TTITLE7=Βιτάλη Ελένη - Πιο πολύ για μένα
TTITLE8=Βιτάλη Ελένη - Εγώ τραγούδαγα (Τα σκυλάδικα)
TTITLE9=Βιτάλη Ελένη - Το ξενάκι
TTITLE10=Βιτάλη Ελένη - Αυτά παθαίνει μάτια μου
TTITLE11=Οκτάβα - Μαύρα μου μάτια [παραδοσιακό Κρήτης]
TTITLE12=Βιτάλη Ελένη - Περπατούσα αφηρημένη (Το honda)
TTITLE13=Βιτάλη Ελένη - Και τι δεν κάνω
TTITLE14=Βιτάλη Ελένη - Ίσως φταίνε τα φεγγάρια
TTITLE15=Βιτάλη Ελένη - Ένας αλήτης πέθανε
TTITLE16=Βιτάλη Ελένη - Το δίχτυ
TTITLE17=Βιτάλη Ελένη - Ένα χειμωνιάτικο πρωΐ
TTITLE18=Βιτάλη Ελένη - Γυρίζω απ' την νύχτα
EXTD=
EXTT0=
EXTT1=
EXTT2=
EXTT3=
EXTT4=
EXTT5=
EXTT6=
EXTT7=
EXTT8=
EXTT9=
EXTT10=
EXTT11=
EXTT12=
EXTT13=
EXTT14=
EXTT15=
EXTT16=
EXTT17=
EXTT18=
PLAYORDER=
